<svg width="172" height="72" viewBox="0 0 172 72" fill="none" xmlns="http://www.w3.org/2000/svg">
<g id="Group 9">
<path id="Vector" d="M58.476 11.6825L58.0447 11.874C55.5545 9.57616 52.5532 7.74049 49.0414 6.36798C45.561 4.99547 41.7297 4.30897 37.5473 4.30897C33.524 4.30897 29.8367 4.94762 26.484 6.2244C23.1317 7.46928 20.2421 9.28849 17.8157 11.6825C15.4212 14.0766 13.5536 17.013 12.2125 20.4924C10.8714 23.9718 10.2009 27.9298 10.2009 32.3664C10.2009 37.2502 10.8395 41.8149 12.1168 46.0601C13.3936 50.2733 15.2935 53.9282 17.8157 57.0247C20.3379 60.1207 23.4827 62.5626 27.2503 64.3504C31.0497 66.1058 35.4719 66.9837 40.5167 66.9837C42.3364 66.9837 44.1561 66.7918 45.9763 66.4089C47.796 66.026 49.536 65.4671 51.1961 64.7333C52.8887 63.967 54.4691 63.0577 55.9379 62.0042C57.4385 60.9189 58.7951 59.69 60.0085 58.3174L60.5355 58.6525L56.7041 68.4201C54.3091 69.3454 51.6593 70.0478 48.7537 70.5265C45.8806 71.0375 42.9751 71.2927 40.0376 71.2927C34.1308 71.2927 28.719 70.4467 23.8023 68.7551C18.9175 67.0316 14.7028 64.6057 11.1588 61.4773C7.64672 58.3494 4.90095 54.5988 2.92141 50.2255C0.97382 45.8208 0 40.937 0 35.5746C0 32.5424 0.383134 29.5576 1.14941 26.6211C1.94759 23.6846 3.097 20.8913 4.59763 18.242C6.09822 15.5927 7.95003 13.1667 10.1531 10.9646C12.3561 8.73012 14.8623 6.79873 17.6721 5.17096C20.5139 3.5432 23.6268 2.28237 27.011 1.38846C30.427 0.462657 34.1148 0 38.0738 0C44.2359 0 49.9513 0.941762 55.2194 2.82479L58.476 11.6825Z" fill="#ABC337"/>
<path id="Vector_2" d="M54.6367 23.8447C54.164 23.8362 53.7029 23.9354 53.2497 24.2106L53.2502 24.2096C53.0268 24.3452 52.792 24.5421 52.5692 24.59C51.8398 24.7461 51.2251 25.1613 50.5311 25.3817C50.201 25.4864 50.042 25.6888 50.052 26.0308C49.9164 26.2761 49.7025 26.4297 49.4542 26.5468C49.2344 26.6505 49.0245 26.7687 48.9592 27.0299C48.9582 27.0309 48.9567 27.0314 48.9557 27.0324C48.6969 27.334 48.4247 27.6252 48.161 28.0759L56.2529 25.4211C55.903 25.0881 55.5395 24.8064 55.9444 24.2959C55.5814 24.3208 55.3247 24.5312 55.019 24.4838C55.1925 24.2261 55.5635 24.2804 55.7619 24.0271C55.379 23.9224 55.0046 23.8512 54.6367 23.8447ZM58.9795 25.4555C58.6385 25.4764 58.3105 25.5034 58.0273 25.7486C57.6913 26.0373 57.3134 26.1196 56.932 25.798C56.6443 25.5552 56.3641 25.6016 56.0376 25.7591C55.2843 26.1245 54.5115 26.4516 53.7472 26.7936C51.9744 27.5913 50.202 28.3895 48.4302 29.1891C47.8633 29.3741 47.8384 29.4259 47.9685 29.9898C48.0638 30.4016 48.2358 30.8353 47.7522 31.1425C47.6993 31.1664 47.6545 31.2053 47.6235 31.2541C47.5921 31.3035 47.5762 31.3603 47.5767 31.4187C47.5762 31.4192 47.5757 31.4191 47.5752 31.4191C47.45 31.8574 47.5552 32.2836 47.6345 32.7139C47.6854 32.9866 47.812 32.9761 48.0214 32.8769C48.4955 32.6511 48.9761 32.4392 49.4567 32.2278C50.9753 31.5602 52.4939 30.8937 54.0135 30.2271C54.0558 30.2286 54.0982 30.2246 54.1401 30.2152C54.0907 30.2416 54.0449 30.2725 54.0204 30.3303L52.4625 31.2432L50.1163 32.4382C49.4442 32.5539 48.8614 32.9168 48.2243 33.1227C47.8304 33.2503 47.9087 33.3874 48.1774 33.5644C48.4287 33.867 48.7991 33.9418 49.1466 34.0595C49.1471 34.0595 49.1476 34.059 49.1481 34.059C49.4173 34.1851 49.685 34.3152 49.9573 34.4354C50.2105 34.5481 50.4458 34.5869 50.5999 34.2659C50.6861 34.0839 50.8437 34.0575 51.0326 34.1437C51.3263 34.2808 51.6379 34.2848 51.9525 34.2305C51.953 34.2305 51.9535 34.231 51.954 34.231L51.9554 34.2325L51.9579 34.2315C52.0771 34.2414 52.1948 34.2429 52.2985 34.1672C52.4405 34.1672 52.5841 34.1562 52.7247 34.1702C53.3948 34.239 54.0922 34.0111 54.7374 34.3676C54.86 34.4349 54.9742 34.3013 55.0839 34.2459C56.2465 33.6507 57.4076 33.0534 58.5672 32.4531C60.1077 31.6595 61.6478 30.8658 63.1873 30.0726C63.3194 30.0043 63.62 29.9743 63.3578 29.7076V29.7051C63.1778 29.3432 63.0168 28.9743 62.953 28.5709C62.9535 28.5704 62.954 28.5699 62.9545 28.5694C62.934 28.2688 62.8313 27.9931 62.7017 27.7244C62.589 27.4936 62.4624 27.4298 62.1997 27.5464C61.5914 27.8171 60.9677 28.0644 60.3451 28.2873C59.7219 28.5101 59.143 28.8601 58.473 28.9508C58.4725 28.9508 58.472 28.9508 58.471 28.9503C58.465 28.8481 58.5582 28.8596 58.6141 28.8282L61.9195 26.9885C61.9314 26.6799 61.8208 26.4022 61.7031 26.1275C61.5446 25.7262 61.2664 25.609 60.8645 25.7696C60.5923 25.8822 60.3022 25.9461 60.0075 25.9575V25.9565L60.0055 25.957L59.7767 25.9386C59.4546 25.8698 59.2522 25.6046 58.9795 25.4555ZM63.8444 30.6748C63.7696 30.6793 63.6848 30.7107 63.5851 30.7631C62.3662 31.4022 61.1368 32.0199 59.9108 32.6446C58.4705 33.3799 57.0277 34.1073 55.5924 34.8507C55.5016 34.897 55.2479 34.8871 55.369 35.1134C55.5276 35.4081 55.4792 35.7191 55.4877 36.0277L55.4872 36.0292C55.4837 36.1808 55.4807 36.3319 55.4777 36.4829C55.5116 36.7252 55.6003 36.9565 55.7374 37.159L55.7389 37.1595L55.7374 37.16L55.9129 37.3928L56.3237 37.9068C56.3935 38.3849 56.6373 38.3904 57.0486 38.2498C58.5388 37.7393 60.0439 37.2701 61.5436 36.7855L61.6298 36.8748C61.6303 36.8748 61.6308 36.8748 61.6313 36.8743L59.9966 37.6475C59.7244 37.7203 59.4776 37.8475 59.2328 37.9856C59.1969 37.9816 59.161 37.9876 59.1281 38.003C59.0957 38.018 59.0678 38.0419 59.0478 38.0723C58.3987 38.3136 57.7661 38.5978 57.1543 38.9228C57.1444 38.9178 57.1329 38.9173 57.1224 38.9208C57.112 38.9243 57.103 38.9318 57.098 38.9418C56.9659 38.9562 56.8422 39.0121 56.7445 39.1013C56.5172 39.1522 56.2619 39.2264 56.2739 39.4972C56.3043 40.1742 56.069 40.7899 55.8945 41.4216C55.8406 41.5148 55.8162 41.623 55.8262 41.7307C55.8357 41.8384 55.878 41.9401 55.9473 42.0228C56.0805 42.1824 56.2574 41.9944 56.4035 41.9411C58.6236 41.1364 60.8416 40.3267 63.0577 39.5121C63.3503 39.4044 63.7262 39.3571 63.9042 39.1472C64.0956 38.9208 63.8369 38.5564 63.8568 38.2458C63.8818 38.1127 63.9072 37.9796 63.9321 37.8465C64.0652 37.4366 64.3923 37.1345 64.5588 36.7437L65.3186 35.6877C65.4801 35.3417 65.876 35.2331 66.0864 34.9354L66.0764 34.9389L66.0839 34.9349C66.5361 34.6572 66.7295 34.1876 67.0481 33.6985L64.992 34.3302C64.8754 34.3382 64.7607 34.3551 64.647 34.377C64.7074 34.3421 64.7602 34.2958 64.8026 34.2409C64.9292 34.1801 65.0569 34.1208 65.1825 34.0585C65.8446 33.7279 66.571 33.535 67.1941 33.1217C67.1772 33.1187 67.1622 33.1097 67.1508 33.0968C67.1652 33.1047 67.1792 33.1127 67.1941 33.1217C67.254 32.9412 67.2315 32.7578 67.1976 32.5793L67.1986 32.5818C67.1503 32.3285 67.0391 32.1989 66.7659 32.3814C66.5934 32.505 66.3945 32.5868 66.1851 32.6197C66.1846 32.6202 66.1841 32.6207 66.1831 32.6207C66.1831 32.6202 66.1836 32.6197 66.1836 32.6187C65.8042 32.5902 65.4123 32.5977 65.1521 32.2418H65.1531C65.0314 32.0742 64.9013 32.1949 64.7777 32.2442C63.8215 32.6286 62.8652 33.0135 61.909 33.3989C61.8372 33.4054 61.7689 33.4218 61.7016 33.4433C61.7425 33.4034 61.7784 33.3585 61.8028 33.3027C62.4943 32.9442 63.1848 32.5843 63.8748 32.2233C64.1759 32.0658 64.6675 31.9526 64.7243 31.7302C64.7991 31.4421 64.332 31.2053 64.162 30.9027C64.0667 30.7341 63.969 30.6673 63.8444 30.6748ZM63.9695 39.565C63.9276 39.562 63.8743 39.5739 63.8055 39.6024C61.3905 40.599 58.973 41.5901 56.5536 42.5752C56.3686 42.6525 56.3287 42.7198 56.4235 42.9117C56.6548 43.3789 56.8672 43.856 56.9863 44.368C57.0003 44.5086 57.0347 44.6517 57.0257 44.7908C57.0038 45.1133 57.0621 45.2125 57.4126 45.0565C59.0164 44.3426 60.6377 43.6685 62.241 42.9546C62.9231 42.6505 63.3882 42.1101 63.6734 41.4176C63.6729 41.4176 63.6719 41.4181 63.6714 41.4181C63.6719 41.4176 63.6719 41.4176 63.6724 41.4171C64.0862 40.944 64.1505 40.3781 64.1051 39.7838C64.0946 39.6487 64.0608 39.5709 63.9695 39.565ZM66.6323 40.4494C66.4393 40.4509 66.3132 40.6503 66.224 40.8283C66.1437 40.9873 66.0859 41.1573 66.0186 41.3224L66.0176 41.3228C65.8994 41.5676 65.8042 41.786 65.4283 41.7262C65.164 41.6843 64.8011 41.8942 64.827 42.1445C64.8799 42.6674 64.5294 43.1151 64.6371 43.6257C64.678 43.6635 64.7183 43.678 64.7577 43.679C64.7104 43.7079 64.6655 43.7428 64.6276 43.7892C64.5613 44.0434 64.4885 44.2962 64.5588 44.5624C64.5593 44.5624 64.5598 44.5624 64.5603 44.5624C64.7662 45.0161 64.9213 45.0739 65.3665 44.9468C65.9054 44.7923 65.9034 44.3326 65.9926 43.9183C66.0744 43.7059 66.1342 43.4915 66.1098 43.2388L65.3306 43.4751L65.3301 43.4771C65.2687 43.5 65.1989 43.4826 65.1376 43.508C65.1775 43.4766 65.2124 43.4392 65.2393 43.3918C65.3719 43.3146 65.4976 43.2203 65.6382 43.1615C66.6133 42.7562 66.7714 41.9017 66.8442 40.9988C66.8486 40.8054 66.9828 40.5351 66.719 40.4619C66.6906 40.4534 66.6612 40.4494 66.6323 40.4494ZM62.238 43.2826C60.5973 44.1292 59.0299 44.9558 57.4435 45.7435C57.0357 45.9464 56.9639 46.1673 57.1738 46.5327C57.263 46.8632 57.4948 47.0711 57.7795 47.2347L57.7805 47.2352C57.8862 47.3767 58.0348 47.4316 58.2028 47.45C58.7966 47.8005 59.506 47.4839 59.8325 46.7227C60.2483 46.4873 60.6611 46.2426 61.0799 46.0112C61.3491 45.8632 61.5386 45.6797 61.4748 45.3422C61.5545 45.1203 61.8417 45.0645 61.896 44.8222C61.8472 44.3002 62.2874 43.8704 62.238 43.2837V43.2826Z" fill="#ABC337"/>
<path id="Vector_3" d="M86.0459 19.4569L85.9651 19.4928C85.4985 19.0621 84.9356 18.7181 84.2771 18.4608C83.6244 18.2031 82.906 18.0745 82.1218 18.0745C81.3675 18.0745 80.6765 18.1941 80.0478 18.4334C79.4192 18.6672 78.8772 19.0082 78.4226 19.4569C77.9734 19.9061 77.6234 20.4565 77.3716 21.1091C77.1204 21.7612 76.9947 22.5036 76.9947 23.3352C76.9947 24.251 77.1144 25.107 77.3537 25.9027C77.5935 26.6929 77.9494 27.3784 78.4226 27.9587C78.8952 28.539 79.485 28.9972 80.1914 29.3322C80.9039 29.6613 81.7329 29.8258 82.6787 29.8258C83.0202 29.8258 83.3612 29.7899 83.7022 29.7181C84.0437 29.6463 84.3698 29.5416 84.6814 29.404C84.9985 29.2604 85.2951 29.0899 85.5703 28.8925C85.8515 28.6891 86.1062 28.4583 86.3336 28.201L86.4323 28.2638L85.7139 30.0955C85.2647 30.269 84.7681 30.4006 84.2232 30.4904C83.6843 30.5861 83.1399 30.6339 82.589 30.6339C81.4817 30.6339 80.4666 30.4754 79.5448 30.1583C78.629 29.8348 77.8388 29.3801 77.1742 28.7938C76.5156 28.207 76.0006 27.504 75.6297 26.6839C75.2648 25.8578 75.0818 24.9425 75.0818 23.9369C75.0818 23.3681 75.1536 22.8087 75.2977 22.2578C75.4472 21.7074 75.6626 21.1839 75.9438 20.6869C76.2255 20.1903 76.5725 19.7356 76.9858 19.3223C77.3986 18.9036 77.8687 18.5416 78.3956 18.236C78.9281 17.9309 79.5119 17.6946 80.1466 17.5271C80.7872 17.3536 81.4787 17.2668 82.221 17.2668C83.3762 17.2668 84.4476 17.4433 85.4357 17.7963L86.0459 19.4569Z" fill="#ABC337"/>
<path id="Vector_4" d="M101.761 30.3557V30.3198C101.773 30.2899 101.782 30.2451 101.788 30.1852C101.794 30.1254 101.797 30.0716 101.797 30.0237C101.797 29.8377 101.77 29.6343 101.716 29.413C101.668 29.1856 101.572 28.9045 101.428 28.5689L100.342 26.1275C100.007 26.1156 99.5607 26.1096 99.0038 26.1096C98.4474 26.1096 97.8457 26.1096 97.199 26.1096C96.7259 26.1096 96.2682 26.1096 95.825 26.1096C95.3883 26.1096 94.9929 26.1156 94.64 26.1275L93.607 28.4971C93.5172 28.719 93.4215 28.9613 93.3198 29.2245C93.2181 29.4878 93.1673 29.754 93.1673 30.0237C93.1673 30.1015 93.1732 30.1673 93.1852 30.2211C93.1972 30.269 93.2091 30.3019 93.2211 30.3198V30.3557H91.3889V30.3198C91.4971 30.2062 91.6317 30.0058 91.7932 29.7181C91.9548 29.4249 92.1313 29.06 92.3232 28.6228L97.4682 17.213H98.1867L103.063 28.1831C103.177 28.4403 103.293 28.6921 103.413 28.9374C103.539 29.1767 103.655 29.392 103.763 29.5835C103.871 29.7749 103.967 29.937 104.051 30.0686C104.134 30.2002 104.191 30.2839 104.221 30.3198V30.3557H101.761ZM95.9417 25.3373C96.2892 25.3373 96.6451 25.3373 97.0106 25.3373C97.3755 25.3314 97.732 25.3284 98.079 25.3284C98.4324 25.3224 98.7705 25.3194 99.0935 25.3194C99.4171 25.3134 99.7102 25.3074 99.974 25.3014L97.4503 19.6005L94.972 25.3373H95.9417Z" fill="#ABC337"/>
<path id="Vector_5" d="M111.827 24.6548C112.414 24.7625 112.949 24.7745 113.434 24.6907C113.925 24.601 114.344 24.4155 114.692 24.1343C115.045 23.8472 115.317 23.4608 115.509 22.9762C115.706 22.4916 115.805 21.8988 115.805 21.1989C115.805 20.7138 115.754 20.274 115.652 19.8792C115.551 19.4779 115.398 19.1398 115.194 18.8646C114.997 18.5835 114.745 18.3676 114.44 18.218C114.135 18.0625 113.778 17.9847 113.371 17.9847C113.114 17.9847 112.889 17.9967 112.698 18.0206C112.506 18.0385 112.345 18.0595 112.213 18.0834C112.057 18.1133 111.929 18.1462 111.827 18.1821V24.6548ZM109.932 17.4822C110.052 17.4941 110.178 17.5061 110.309 17.5181C110.423 17.53 110.549 17.539 110.686 17.545C110.83 17.545 110.977 17.545 111.126 17.545C111.36 17.545 111.674 17.5181 112.069 17.4642C112.471 17.4044 112.979 17.3745 113.596 17.3745C114.171 17.3745 114.701 17.4582 115.185 17.6257C115.676 17.7933 116.101 18.0385 116.46 18.3616C116.819 18.6852 117.098 19.08 117.295 19.5467C117.499 20.0078 117.601 20.5343 117.601 21.1271C117.601 21.9228 117.442 22.6113 117.125 23.1916C116.807 23.7724 116.383 24.242 115.85 24.601C115.317 24.9604 114.704 25.2057 114.009 25.3373C113.315 25.463 112.587 25.4689 111.827 25.3553V26.8454C111.827 27.354 111.833 27.8002 111.845 28.1831C111.863 28.56 111.881 28.8865 111.899 29.1617C111.923 29.4369 111.95 29.6672 111.979 29.8527C112.015 30.0387 112.051 30.1942 112.087 30.3198V30.3557H109.932V30.3198C109.968 30.1942 110.001 30.0387 110.031 29.8527C110.067 29.6672 110.097 29.4369 110.121 29.1617C110.145 28.8865 110.163 28.56 110.175 28.1831C110.187 27.8002 110.193 27.354 110.193 26.8454V21.0009C110.193 20.4924 110.187 20.0497 110.175 19.6723C110.163 19.2894 110.145 18.9604 110.121 18.6852C110.097 18.4035 110.067 18.1702 110.031 17.9847C110.001 17.7992 109.968 17.6437 109.932 17.5181V17.4822Z" fill="#ABC337"/>
<path id="Vector_6" d="M124.039 30.3198C124.075 30.1942 124.108 30.0386 124.138 29.8527C124.168 29.6672 124.195 29.4369 124.219 29.1617C124.243 28.8865 124.261 28.5599 124.273 28.183C124.285 27.8001 124.291 27.3539 124.291 26.8454V21.0009C124.291 20.4924 124.285 20.0497 124.273 19.6723C124.261 19.2894 124.243 18.9604 124.219 18.6852C124.195 18.4035 124.168 18.1702 124.138 17.9847C124.108 17.7992 124.075 17.6437 124.039 17.518V17.4821H126.186V17.518C126.15 17.6437 126.113 17.7992 126.077 17.9847C126.047 18.1702 126.021 18.4035 125.997 18.6852C125.979 18.9604 125.961 19.2894 125.943 19.6723C125.931 20.0497 125.925 20.4924 125.925 21.0009V26.8454C125.925 27.3539 125.931 27.8001 125.943 28.183C125.961 28.5599 125.979 28.8865 125.997 29.1617C126.021 29.4369 126.047 29.6672 126.077 29.8527C126.113 30.0386 126.15 30.1942 126.186 30.3198V30.3557H124.039V30.3198Z" fill="#ABC337"/>
<path id="Vector_7" d="M136.826 18.2719C136.12 18.2719 135.483 18.3048 134.914 18.3706C134.345 18.4304 133.854 18.4967 133.441 18.5685C132.962 18.6582 132.534 18.757 132.157 18.8646L132.417 17.4104C132.489 17.4164 132.597 17.4223 132.741 17.4283C132.884 17.4343 133.043 17.4403 133.217 17.4463C133.396 17.4523 133.582 17.4582 133.773 17.4642C133.971 17.4642 134.156 17.4672 134.33 17.4732C134.503 17.4732 134.656 17.4762 134.788 17.4822C134.926 17.4822 135.024 17.4822 135.084 17.4822H140.212C140.272 17.4822 140.367 17.4822 140.499 17.4822C140.637 17.4762 140.793 17.4732 140.966 17.4732C141.14 17.4672 141.322 17.4642 141.514 17.4642C141.711 17.4582 141.897 17.4523 142.07 17.4463C142.25 17.4403 142.412 17.4343 142.556 17.4283C142.699 17.4223 142.807 17.4164 142.879 17.4104L143.139 18.8646C142.756 18.757 142.325 18.6582 141.846 18.5685C141.433 18.4967 140.942 18.4304 140.373 18.3706C139.804 18.3048 139.167 18.2719 138.46 18.2719V26.8454C138.46 27.354 138.466 27.8002 138.479 28.183C138.497 28.56 138.515 28.8865 138.533 29.1617C138.557 29.4369 138.584 29.6672 138.613 29.8527C138.649 30.0387 138.685 30.1942 138.721 30.3198V30.3557H136.575V30.3198C136.611 30.1942 136.644 30.0387 136.674 29.8527C136.704 29.6672 136.73 29.4369 136.754 29.1617C136.778 28.8865 136.796 28.56 136.808 28.183C136.82 27.8002 136.826 27.354 136.826 26.8454V18.2719Z" fill="#ABC337"/>
<path id="Vector_8" d="M157.022 30.3557V30.3198C157.034 30.2899 157.043 30.2451 157.049 30.1852C157.055 30.1254 157.058 30.0716 157.058 30.0237C157.058 29.8377 157.031 29.6343 156.977 29.413C156.929 29.1856 156.833 28.9045 156.689 28.5689L155.603 26.1275C155.268 26.1156 154.822 26.1096 154.265 26.1096C153.708 26.1096 153.106 26.1096 152.46 26.1096C151.987 26.1096 151.529 26.1096 151.086 26.1096C150.649 26.1096 150.254 26.1156 149.901 26.1275L148.868 28.4971C148.778 28.719 148.683 28.9613 148.581 29.2245C148.479 29.4878 148.428 29.754 148.428 30.0237C148.428 30.1015 148.434 30.1673 148.446 30.2211C148.458 30.269 148.47 30.3019 148.482 30.3198V30.3557H146.65V30.3198C146.758 30.2062 146.892 30.0058 147.054 29.7181C147.216 29.4249 147.392 29.06 147.584 28.6228L152.729 17.213H153.448L158.324 28.1831C158.437 28.4403 158.555 28.6921 158.674 28.9374C158.8 29.1767 158.916 29.392 159.024 29.5835C159.132 29.7749 159.228 29.937 159.312 30.0686C159.396 30.2002 159.452 30.2839 159.482 30.3198V30.3557H157.022ZM151.203 25.3373C151.55 25.3373 151.906 25.3373 152.271 25.3373C152.637 25.3314 152.993 25.3284 153.34 25.3284C153.693 25.3224 154.032 25.3194 154.355 25.3194C154.678 25.3134 154.971 25.3074 155.235 25.3014L152.712 19.6005L150.233 25.3373H151.203Z" fill="#ABC337"/>
<path id="Vector_9" d="M167.088 29.5655C167.795 29.5655 168.444 29.5356 169.037 29.4758C169.629 29.416 170.147 29.3472 170.59 29.2694C171.105 29.1856 171.575 29.0869 172 28.9732L171.74 30.4275C171.668 30.4215 171.56 30.4155 171.416 30.4096C171.273 30.4036 171.111 30.3976 170.932 30.3916C170.758 30.3856 170.572 30.3796 170.375 30.3737C170.183 30.3737 170 30.3707 169.827 30.3647C169.653 30.3647 169.498 30.3617 169.36 30.3557C169.228 30.3557 169.132 30.3557 169.073 30.3557H165.193V30.3198C165.229 30.1942 165.262 30.0386 165.292 29.8527C165.328 29.6672 165.358 29.4369 165.382 29.1617C165.406 28.8865 165.424 28.5599 165.436 28.183C165.448 27.8001 165.454 27.3539 165.454 26.8454V21.0009C165.454 20.4924 165.448 20.0497 165.436 19.6723C165.424 19.2894 165.406 18.9604 165.382 18.6852C165.358 18.4035 165.328 18.1702 165.292 17.9847C165.262 17.7992 165.229 17.6437 165.193 17.518V17.4821H167.349V17.518C167.313 17.6437 167.277 17.7992 167.241 17.9847C167.211 18.1702 167.184 18.4035 167.16 18.6852C167.142 18.9604 167.124 19.2894 167.106 19.6723C167.094 20.0497 167.088 20.4924 167.088 21.0009V29.5655Z" fill="#ABC337"/>
<path id="Vector_10" d="M84.5379 53.3379V53.302C84.5498 53.2721 84.5588 53.2272 84.5648 53.1674C84.5708 53.1076 84.5738 53.0538 84.5738 53.0059C84.5738 52.8199 84.5468 52.6165 84.4925 52.3952C84.4446 52.1678 84.3489 51.8866 84.2053 51.5511L83.119 49.1097C82.7835 49.0978 82.3378 49.0918 81.7809 49.0918C81.224 49.0918 80.6222 49.0918 79.9761 49.0918C79.503 49.0918 79.0448 49.0918 78.6021 49.0918C78.1649 49.0918 77.77 49.0978 77.4166 49.1097L76.3841 51.4793C76.2943 51.7012 76.1986 51.9435 76.0969 52.2067C75.9947 52.4699 75.9438 52.7362 75.9438 53.0059C75.9438 53.0837 75.9498 53.1495 75.9618 53.2033C75.9738 53.2512 75.9857 53.2841 75.9977 53.302V53.3379H74.166V53.302C74.2737 53.1884 74.4083 52.9879 74.5703 52.7003C74.7319 52.4071 74.9084 52.0422 75.0998 51.6055L80.2453 40.1951H80.9637L85.8396 51.1652C85.9532 51.4225 86.0704 51.6743 86.1901 51.9195C86.3157 52.1588 86.4323 52.3742 86.54 52.5657C86.6477 52.7571 86.7434 52.9191 86.8277 53.0508C86.9115 53.1824 86.9683 53.2661 86.9982 53.302V53.3379H84.5379ZM78.7188 48.3195C79.0658 48.3195 79.4222 48.3195 79.7872 48.3195C80.1526 48.3135 80.5086 48.3105 80.8561 48.3105C81.209 48.3046 81.5476 48.3016 81.8706 48.3016C82.1937 48.2956 82.4873 48.2896 82.7506 48.2836L80.2274 42.5827L77.7491 48.3195H78.7188Z" fill="#ABC337"/>
<path id="Vector_11" d="M94.604 49.8276C94.604 50.3366 94.61 50.7823 94.6219 51.1652C94.6399 51.5421 94.6578 51.8687 94.6758 52.1439C94.6997 52.4191 94.7266 52.6494 94.7565 52.8353C94.7924 53.0208 94.8283 53.1764 94.8642 53.302V53.3379H92.709V53.302C92.7449 53.1764 92.7778 53.0208 92.8077 52.8353C92.8436 52.6494 92.8735 52.4191 92.8974 52.1439C92.9214 51.8687 92.9393 51.5421 92.9513 51.1652C92.9632 50.7823 92.9692 50.3366 92.9692 49.8276V43.9836C92.9692 43.4746 92.9632 43.0319 92.9513 42.655C92.9393 42.2716 92.9214 41.9425 92.8974 41.6673C92.8735 41.3861 92.8436 41.1523 92.8077 40.9669C92.7778 40.7814 92.7449 40.6258 92.709 40.5002V40.4643C93.206 40.4643 93.7086 40.4643 94.2176 40.4643C94.7266 40.4583 95.2202 40.4553 95.6993 40.4553C96.1784 40.4494 96.6331 40.4434 97.0643 40.4374C97.4951 40.4254 97.8844 40.4165 98.2314 40.4105C98.5789 40.3985 98.8721 40.3865 99.1114 40.3746C99.3512 40.3566 99.5217 40.3387 99.6234 40.3207L99.1837 41.5148C98.9857 41.4609 98.7554 41.4131 98.4922 41.3707C98.2643 41.3348 97.9861 41.3019 97.6571 41.272C97.3335 41.2361 96.9596 41.2181 96.5344 41.2181C96.3908 41.2181 96.2113 41.2241 95.9954 41.2361C95.7801 41.2421 95.5677 41.251 95.3583 41.263C95.1185 41.275 94.8672 41.2869 94.604 41.2989V45.8327C95.2202 45.8267 95.786 45.8088 96.301 45.7789C96.8155 45.749 97.2588 45.719 97.6302 45.6891C98.0609 45.6532 98.4503 45.6114 98.7973 45.5635L98.5281 46.8652C98.0789 46.8114 97.6242 46.7605 97.163 46.7126C96.7677 46.6708 96.3429 46.6349 95.8877 46.605C95.4331 46.5691 95.0048 46.5511 94.604 46.5511V49.8276Z" fill="#ABC337"/>
<path id="Vector_12" d="M107.768 49.8276C107.768 50.3366 107.774 50.7823 107.786 51.1652C107.804 51.5421 107.822 51.8687 107.84 52.1439C107.864 52.4191 107.891 52.6494 107.921 52.8354C107.956 53.0208 107.992 53.1764 108.028 53.302V53.3379H105.873V53.302C105.909 53.1764 105.942 53.0208 105.972 52.8354C106.008 52.6494 106.035 52.4191 106.053 52.1439C106.076 51.8687 106.094 51.5421 106.107 51.1652C106.125 50.7883 106.134 50.3426 106.134 49.8276V43.9836C106.134 43.4746 106.125 43.0319 106.107 42.655C106.094 42.2716 106.076 41.9425 106.053 41.6673C106.035 41.3921 106.008 41.1613 105.972 40.9759C105.942 40.7844 105.909 40.6259 105.873 40.5002V40.4643L106.25 40.5002C106.364 40.5122 106.49 40.5212 106.627 40.5272C106.771 40.5272 106.918 40.5272 107.068 40.5272C107.301 40.5272 107.615 40.5002 108.01 40.4464C108.412 40.3866 108.92 40.3567 109.537 40.3567C110.112 40.3567 110.641 40.4344 111.126 40.59C111.617 40.7455 112.042 40.9729 112.402 41.272C112.761 41.5716 113.039 41.9396 113.237 42.3763C113.44 42.8075 113.542 43.2981 113.542 43.8485C113.542 44.2798 113.485 44.6806 113.371 45.0515C113.264 45.4169 113.108 45.749 112.904 46.0481C112.707 46.3472 112.467 46.614 112.186 46.8473C111.905 47.0746 111.59 47.2661 111.243 47.4216L114.395 51.8478C114.55 52.0691 114.694 52.2605 114.826 52.4221C114.964 52.5836 115.092 52.7242 115.212 52.8444C115.338 52.958 115.458 53.0537 115.571 53.1315C115.685 53.2033 115.802 53.2601 115.921 53.302V53.3379H113.326C113.308 53.2242 113.249 53.0747 113.147 52.8892C113.051 52.6973 112.937 52.5088 112.805 52.3234L109.627 47.8439C109.489 47.8559 109.351 47.8678 109.214 47.8798C109.076 47.8858 108.935 47.8888 108.792 47.8888C108.624 47.8888 108.454 47.8828 108.28 47.8708C108.112 47.8588 107.942 47.8379 107.768 47.808V49.8276ZM107.768 47.1075C107.93 47.1434 108.094 47.1703 108.262 47.1883C108.43 47.2003 108.591 47.2063 108.747 47.2063C109.196 47.2063 109.606 47.1404 109.977 47.0088C110.348 46.8712 110.662 46.6648 110.92 46.3891C111.183 46.1139 111.387 45.7729 111.531 45.3661C111.674 44.9528 111.746 44.4712 111.746 43.9208C111.746 43.4716 111.695 43.0648 111.593 42.6999C111.491 42.3344 111.339 42.0263 111.135 41.775C110.938 41.5178 110.686 41.3199 110.381 41.1823C110.076 41.0387 109.719 40.9669 109.313 40.9669C108.899 40.9669 108.57 40.9878 108.324 41.0297C108.079 41.0716 107.894 41.1164 107.768 41.1643V47.1075Z" fill="#ABC337"/>
<path id="Vector_13" d="M121.417 53.302C121.453 53.1764 121.486 53.0208 121.516 52.8354C121.546 52.6494 121.573 52.4191 121.597 52.1439C121.621 51.8687 121.639 51.5421 121.651 51.1652C121.663 50.7824 121.669 50.3367 121.669 49.8276V43.9836C121.669 43.4746 121.663 43.0319 121.651 42.655C121.639 42.2716 121.621 41.9426 121.597 41.6674C121.573 41.3862 121.546 41.1524 121.516 40.9669C121.486 40.7814 121.453 40.6259 121.417 40.5002V40.4644H123.563V40.5002C123.527 40.6259 123.491 40.7814 123.456 40.9669C123.426 41.1524 123.399 41.3862 123.375 41.6674C123.357 41.9426 123.339 42.2716 123.321 42.655C123.309 43.0319 123.303 43.4746 123.303 43.9836V49.8276C123.303 50.3367 123.309 50.7824 123.321 51.1652C123.339 51.5421 123.357 51.8687 123.375 52.1439C123.399 52.4191 123.426 52.6494 123.456 52.8354C123.491 53.0208 123.527 53.1764 123.563 53.302V53.3379H121.417V53.302Z" fill="#ABC337"/>
<path id="Vector_14" d="M141.235 42.4391L141.155 42.475C140.687 42.0443 140.125 41.7003 139.467 41.443C138.814 41.1853 138.095 41.0566 137.311 41.0566C136.557 41.0566 135.865 41.1763 135.237 41.4161C134.608 41.6494 134.067 41.9904 133.612 42.4391C133.163 42.8883 132.812 43.4387 132.561 44.0913C132.31 44.7434 132.184 45.4858 132.184 46.3173C132.184 47.2332 132.303 48.0892 132.543 48.8849C132.782 49.6751 133.139 50.3606 133.612 50.9409C134.085 51.5212 134.674 51.9794 135.38 52.3144C136.093 52.6435 136.922 52.808 137.868 52.808C138.209 52.808 138.551 52.7721 138.892 52.7003C139.233 52.6285 139.559 52.5238 139.87 52.3862C140.188 52.2426 140.484 52.0721 140.759 51.8747C141.041 51.6713 141.295 51.4405 141.523 51.1832L141.622 51.246L140.903 53.0777C140.454 53.2512 139.957 53.3828 139.413 53.4726C138.874 53.5683 138.329 53.6161 137.778 53.6161C136.671 53.6161 135.656 53.4576 134.734 53.1405C133.818 52.817 133.028 52.3623 132.364 51.776C131.705 51.1892 131.19 50.4862 130.819 49.6661C130.454 48.84 130.271 47.9247 130.271 46.9191C130.271 46.3503 130.343 45.7909 130.487 45.2405C130.636 44.6896 130.852 44.1661 131.133 43.6691C131.414 43.1725 131.762 42.7178 132.175 42.3045C132.588 41.8857 133.058 41.5238 133.585 41.2182C134.118 40.9131 134.701 40.6768 135.336 40.5092C135.976 40.3357 136.668 40.249 137.41 40.249C138.566 40.249 139.637 40.4255 140.625 40.7785L141.235 42.4391Z" fill="#ABC337"/>
<path id="Vector_15" d="M156.949 53.3379V53.302C156.961 53.2721 156.97 53.2272 156.977 53.1674C156.983 53.1076 156.986 53.0538 156.986 53.0059C156.986 52.8199 156.958 52.6165 156.905 52.3952C156.857 52.1678 156.761 51.8866 156.617 51.5511L155.531 49.1097C155.196 49.0978 154.75 49.0918 154.193 49.0918C153.636 49.0918 153.034 49.0918 152.388 49.0918C151.915 49.0918 151.457 49.0918 151.014 49.0918C150.577 49.0918 150.182 49.0978 149.829 49.1097L148.796 51.4793C148.706 51.7012 148.611 51.9435 148.509 52.2067C148.407 52.4699 148.356 52.7362 148.356 53.0059C148.356 53.0837 148.362 53.1495 148.374 53.2033C148.386 53.2512 148.398 53.2841 148.41 53.302V53.3379H146.578V53.302C146.686 53.1884 146.82 52.9879 146.982 52.7003C147.144 52.4071 147.32 52.0422 147.512 51.6055L152.657 40.1951H153.376L158.252 51.1652C158.365 51.4225 158.482 51.6743 158.602 51.9195C158.728 52.1588 158.844 52.3742 158.952 52.5657C159.06 52.7571 159.156 52.9191 159.239 53.0508C159.324 53.1824 159.38 53.2661 159.41 53.302V53.3379H156.949ZM151.131 48.3195C151.478 48.3195 151.834 48.3195 152.199 48.3195C152.565 48.3135 152.921 48.3105 153.268 48.3105C153.621 48.3046 153.96 48.3016 154.283 48.3016C154.606 48.2956 154.899 48.2896 155.163 48.2836L152.639 42.5827L150.161 48.3195H151.131Z" fill="#ABC337"/>
<path id="Vector_16" d="M170.276 50.9274C170.276 52.3822 169.096 53.5613 167.641 53.5613C166.186 53.5613 165.006 52.3822 165.006 50.9274C165.006 49.4727 166.186 48.2936 167.641 48.2936C169.096 48.2936 170.276 49.4727 170.276 50.9274Z" fill="#ABC337"/>
</g>
</svg>
