<svg width="165" height="58" viewBox="0 0 165 58" fill="none" xmlns="http://www.w3.org/2000/svg">
<path d="M8.802 18.7704H3.33L2.322 21.5604H0.594L5.13 9.08639H7.02L11.538 21.5604H9.81L8.802 18.7704ZM8.334 17.4384L6.066 11.1024L3.798 17.4384H8.334ZM15.1529 13.5324C15.4889 12.9444 15.9809 12.4644 16.6289 12.0924C17.2769 11.7204 18.0149 11.5344 18.8429 11.5344C19.7309 11.5344 20.5289 11.7444 21.2369 12.1644C21.9449 12.5844 22.5029 13.1784 22.9109 13.9464C23.3189 14.7024 23.5229 15.5844 23.5229 16.5924C23.5229 17.5884 23.3189 18.4764 22.9109 19.2564C22.5029 20.0364 21.9389 20.6424 21.2189 21.0744C20.5109 21.5064 19.7189 21.7224 18.8429 21.7224C17.9909 21.7224 17.2409 21.5364 16.5929 21.1644C15.9569 20.7924 15.4769 20.3184 15.1529 19.7424V21.5604H13.5149V8.24039H15.1529V13.5324ZM21.8489 16.5924C21.8489 15.8484 21.6989 15.2004 21.3989 14.6484C21.0989 14.0964 20.6909 13.6764 20.1749 13.3884C19.6709 13.1004 19.1129 12.9564 18.5009 12.9564C17.9009 12.9564 17.3429 13.1064 16.8269 13.4064C16.3229 13.6944 15.9149 14.1204 15.6029 14.6844C15.3029 15.2364 15.1529 15.8784 15.1529 16.6104C15.1529 17.3544 15.3029 18.0084 15.6029 18.5724C15.9149 19.1244 16.3229 19.5504 16.8269 19.8504C17.3429 20.1384 17.9009 20.2824 18.5009 20.2824C19.1129 20.2824 19.6709 20.1384 20.1749 19.8504C20.6909 19.5504 21.0989 19.1244 21.3989 18.5724C21.6989 18.0084 21.8489 17.3484 21.8489 16.5924ZM25.067 16.6104C25.067 15.5904 25.271 14.7024 25.679 13.9464C26.087 13.1784 26.651 12.5844 27.371 12.1644C28.103 11.7444 28.937 11.5344 29.873 11.5344C31.085 11.5344 32.081 11.8284 32.861 12.4164C33.653 13.0044 34.175 13.8204 34.427 14.8644H32.663C32.495 14.2644 32.165 13.7904 31.673 13.4424C31.193 13.0944 30.593 12.9204 29.873 12.9204C28.937 12.9204 28.181 13.2444 27.605 13.8924C27.029 14.5284 26.741 15.4344 26.741 16.6104C26.741 17.7984 27.029 18.7164 27.605 19.3644C28.181 20.0124 28.937 20.3364 29.873 20.3364C30.593 20.3364 31.193 20.1684 31.673 19.8324C32.153 19.4964 32.483 19.0164 32.663 18.3924H34.427C34.163 19.4004 33.635 20.2104 32.843 20.8224C32.051 21.4224 31.061 21.7224 29.873 21.7224C28.937 21.7224 28.103 21.5124 27.371 21.0924C26.651 20.6724 26.087 20.0784 25.679 19.3104C25.271 18.5424 25.067 17.6424 25.067 16.6104ZM43.0494 10.3464V14.5404H47.6214V15.8904H43.0494V20.2104H48.1614V21.5604H41.4114V8.99639H48.1614V10.3464H43.0494ZM54.6539 13.0464H52.5839V21.5604H50.9459V13.0464H49.6679V11.6964H50.9459V10.9944C50.9459 9.89039 51.2279 9.08639 51.7919 8.58239C52.3679 8.06639 53.2859 7.80839 54.5459 7.80839V9.17639C53.8259 9.17639 53.3159 9.32039 53.0159 9.60839C52.7279 9.88439 52.5839 10.3464 52.5839 10.9944V11.6964H54.6539V13.0464ZM60.6317 11.5344C61.4837 11.5344 62.2277 11.7204 62.8637 12.0924C63.5117 12.4644 63.9917 12.9324 64.3037 13.4964V11.6964H65.9597V21.7764C65.9597 22.6764 65.7677 23.4744 65.3837 24.1704C64.9997 24.8784 64.4477 25.4304 63.7277 25.8264C63.0197 26.2224 62.1917 26.4204 61.2437 26.4204C59.9477 26.4204 58.8677 26.1144 58.0037 25.5024C57.1397 24.8904 56.6297 24.0564 56.4737 23.0004H58.0937C58.2737 23.6004 58.6457 24.0804 59.2097 24.4404C59.7737 24.8124 60.4517 24.9984 61.2437 24.9984C62.1437 24.9984 62.8757 24.7164 63.4397 24.1524C64.0157 23.5884 64.3037 22.7964 64.3037 21.7764V19.7064C63.9797 20.2824 63.4997 20.7624 62.8637 21.1464C62.2277 21.5304 61.4837 21.7224 60.6317 21.7224C59.7557 21.7224 58.9577 21.5064 58.2377 21.0744C57.5297 20.6424 56.9717 20.0364 56.5637 19.2564C56.1557 18.4764 55.9517 17.5884 55.9517 16.5924C55.9517 15.5844 56.1557 14.7024 56.5637 13.9464C56.9717 13.1784 57.5297 12.5844 58.2377 12.1644C58.9577 11.7444 59.7557 11.5344 60.6317 11.5344ZM64.3037 16.6104C64.3037 15.8664 64.1537 15.2184 63.8537 14.6664C63.5537 14.1144 63.1457 13.6944 62.6297 13.4064C62.1257 13.1064 61.5677 12.9564 60.9557 12.9564C60.3437 12.9564 59.7857 13.1004 59.2817 13.3884C58.7777 13.6764 58.3757 14.0964 58.0757 14.6484C57.7757 15.2004 57.6257 15.8484 57.6257 16.5924C57.6257 17.3484 57.7757 18.0084 58.0757 18.5724C58.3757 19.1244 58.7777 19.5504 59.2817 19.8504C59.7857 20.1384 60.3437 20.2824 60.9557 20.2824C61.5677 20.2824 62.1257 20.1384 62.6297 19.8504C63.1457 19.5504 63.5537 19.1244 63.8537 18.5724C64.1537 18.0084 64.3037 17.3544 64.3037 16.6104Z" fill="white"/>
<path d="M8.596 41.5554V51.3134H7.322V46.8894H2.352V51.3134H1.078V41.5554H2.352V45.8394H7.322V41.5554H8.596ZM15.9094 51.3134L13.5854 47.3234H12.0454V51.3134H10.7714V41.5554H13.9214C14.6587 41.5554 15.2794 41.6814 15.7834 41.9334C16.2967 42.1854 16.6794 42.5261 16.9314 42.9554C17.1834 43.3847 17.3094 43.8747 17.3094 44.4254C17.3094 45.0974 17.1134 45.6901 16.7214 46.2034C16.3387 46.7167 15.76 47.0574 14.9854 47.2254L17.4354 51.3134H15.9094ZM12.0454 46.3014H13.9214C14.612 46.3014 15.13 46.1334 15.4754 45.7974C15.8207 45.4521 15.9934 44.9947 15.9934 44.4254C15.9934 43.8467 15.8207 43.3987 15.4754 43.0814C15.1394 42.7641 14.6214 42.6054 13.9214 42.6054H12.0454V46.3014ZM32.9194 41.6254V51.3134H31.6454V44.0894L28.4254 51.3134H27.5294L24.2954 44.0754V51.3134H23.0214V41.6254H24.3934L27.9774 49.6334L31.5614 41.6254H32.9194ZM34.604 47.4494C34.604 46.6654 34.7626 45.9794 35.08 45.3914C35.3973 44.7941 35.8313 44.3321 36.382 44.0054C36.942 43.6787 37.5626 43.5154 38.244 43.5154C38.916 43.5154 39.4993 43.6601 39.994 43.9494C40.4886 44.2387 40.8573 44.6027 41.1 45.0414V43.6414H42.388V51.3134H41.1V49.8854C40.848 50.3334 40.47 50.7067 39.966 51.0054C39.4713 51.2947 38.8926 51.4394 38.23 51.4394C37.5486 51.4394 36.9326 51.2714 36.382 50.9354C35.8313 50.5994 35.3973 50.1281 35.08 49.5214C34.7626 48.9147 34.604 48.2241 34.604 47.4494ZM41.1 47.4634C41.1 46.8847 40.9833 46.3807 40.75 45.9514C40.5166 45.5221 40.1993 45.1954 39.798 44.9714C39.406 44.7381 38.972 44.6214 38.496 44.6214C38.02 44.6214 37.586 44.7334 37.194 44.9574C36.802 45.1814 36.4893 45.5081 36.256 45.9374C36.0226 46.3667 35.906 46.8707 35.906 47.4494C35.906 48.0374 36.0226 48.5507 36.256 48.9894C36.4893 49.4187 36.802 49.7501 37.194 49.9834C37.586 50.2074 38.02 50.3194 38.496 50.3194C38.972 50.3194 39.406 50.2074 39.798 49.9834C40.1993 49.7501 40.5166 49.4187 40.75 48.9894C40.9833 48.5507 41.1 48.0421 41.1 47.4634ZM48.2789 43.5014C49.2122 43.5014 49.9682 43.7861 50.5469 44.3554C51.1256 44.9154 51.4149 45.7274 51.4149 46.7914V51.3134H50.1549V46.9734C50.1549 46.2081 49.9636 45.6247 49.5809 45.2234C49.1982 44.8127 48.6756 44.6074 48.0129 44.6074C47.3409 44.6074 46.8042 44.8174 46.4029 45.2374C46.0109 45.6574 45.8149 46.2687 45.8149 47.0714V51.3134H44.5409V43.6414H45.8149V44.7334C46.0669 44.3414 46.4076 44.0381 46.8369 43.8234C47.2756 43.6087 47.7562 43.5014 48.2789 43.5014ZM53.02 47.4494C53.02 46.6654 53.1786 45.9794 53.496 45.3914C53.8133 44.7941 54.2473 44.3321 54.798 44.0054C55.358 43.6787 55.9786 43.5154 56.66 43.5154C57.332 43.5154 57.9153 43.6601 58.41 43.9494C58.9046 44.2387 59.2733 44.6027 59.516 45.0414V43.6414H60.804V51.3134H59.516V49.8854C59.264 50.3334 58.886 50.7067 58.382 51.0054C57.8873 51.2947 57.3086 51.4394 56.646 51.4394C55.9646 51.4394 55.3486 51.2714 54.798 50.9354C54.2473 50.5994 53.8133 50.1281 53.496 49.5214C53.1786 48.9147 53.02 48.2241 53.02 47.4494ZM59.516 47.4634C59.516 46.8847 59.3993 46.3807 59.166 45.9514C58.9326 45.5221 58.6153 45.1954 58.214 44.9714C57.822 44.7381 57.388 44.6214 56.912 44.6214C56.436 44.6214 56.002 44.7334 55.61 44.9574C55.218 45.1814 54.9053 45.5081 54.672 45.9374C54.4386 46.3667 54.322 46.8707 54.322 47.4494C54.322 48.0374 54.4386 48.5507 54.672 48.9894C54.9053 49.4187 55.218 49.7501 55.61 49.9834C56.002 50.2074 56.436 50.3194 56.912 50.3194C57.388 50.3194 57.822 50.2074 58.214 49.9834C58.6153 49.7501 58.9326 49.4187 59.166 48.9894C59.3993 48.5507 59.516 48.0421 59.516 47.4634ZM66.1209 43.5154C66.7836 43.5154 67.3622 43.6601 67.8569 43.9494C68.3609 44.2387 68.7342 44.6027 68.9769 45.0414V43.6414H70.2649V51.4814C70.2649 52.1814 70.1156 52.8021 69.8169 53.3434C69.5182 53.8941 69.0889 54.3234 68.5289 54.6314C67.9782 54.9394 67.3342 55.0934 66.5969 55.0934C65.5889 55.0934 64.7489 54.8554 64.0769 54.3794C63.4049 53.9034 63.0082 53.2547 62.8869 52.4334H64.1469C64.2869 52.9001 64.5762 53.2734 65.0149 53.5534C65.4536 53.8427 65.9809 53.9874 66.5969 53.9874C67.2969 53.9874 67.8662 53.7681 68.3049 53.3294C68.7529 52.8907 68.9769 52.2747 68.9769 51.4814V49.8714C68.7249 50.3194 68.3516 50.6927 67.8569 50.9914C67.3622 51.2901 66.7836 51.4394 66.1209 51.4394C65.4396 51.4394 64.8189 51.2714 64.2589 50.9354C63.7082 50.5994 63.2742 50.1281 62.9569 49.5214C62.6396 48.9147 62.4809 48.2241 62.4809 47.4494C62.4809 46.6654 62.6396 45.9794 62.9569 45.3914C63.2742 44.7941 63.7082 44.3321 64.2589 44.0054C64.8189 43.6787 65.4396 43.5154 66.1209 43.5154ZM68.9769 47.4634C68.9769 46.8847 68.8602 46.3807 68.6269 45.9514C68.3936 45.5221 68.0762 45.1954 67.6749 44.9714C67.2829 44.7381 66.8489 44.6214 66.3729 44.6214C65.8969 44.6214 65.4629 44.7334 65.0709 44.9574C64.6789 45.1814 64.3662 45.5081 64.1329 45.9374C63.8996 46.3667 63.7829 46.8707 63.7829 47.4494C63.7829 48.0374 63.8996 48.5507 64.1329 48.9894C64.3662 49.4187 64.6789 49.7501 65.0709 49.9834C65.4629 50.2074 65.8969 50.3194 66.3729 50.3194C66.8489 50.3194 67.2829 50.2074 67.6749 49.9834C68.0762 49.7501 68.3936 49.4187 68.6269 48.9894C68.8602 48.5507 68.9769 48.0421 68.9769 47.4634ZM79.4178 47.1834C79.4178 47.4261 79.4038 47.6827 79.3758 47.9534H73.2438C73.2905 48.7094 73.5472 49.3021 74.0138 49.7314C74.4898 50.1514 75.0638 50.3614 75.7358 50.3614C76.2865 50.3614 76.7438 50.2354 77.1078 49.9834C77.4812 49.7221 77.7425 49.3767 77.8918 48.9474H79.2638C79.0585 49.6847 78.6478 50.2867 78.0318 50.7534C77.4158 51.2107 76.6505 51.4394 75.7358 51.4394C75.0078 51.4394 74.3545 51.2761 73.7758 50.9494C73.2065 50.6227 72.7585 50.1607 72.4318 49.5634C72.1052 48.9567 71.9418 48.2567 71.9418 47.4634C71.9418 46.6701 72.1005 45.9747 72.4178 45.3774C72.7352 44.7801 73.1785 44.3227 73.7478 44.0054C74.3265 43.6787 74.9892 43.5154 75.7358 43.5154C76.4638 43.5154 77.1078 43.6741 77.6678 43.9914C78.2278 44.3087 78.6572 44.7474 78.9558 45.3074C79.2638 45.8581 79.4178 46.4834 79.4178 47.1834ZM78.1018 46.9174C78.1018 46.4321 77.9945 46.0167 77.7798 45.6714C77.5652 45.3167 77.2712 45.0507 76.8978 44.8734C76.5338 44.6867 76.1278 44.5934 75.6798 44.5934C75.0358 44.5934 74.4852 44.7987 74.0278 45.2094C73.5798 45.6201 73.3232 46.1894 73.2578 46.9174H78.1018ZM82.3735 44.8874C82.5975 44.4487 82.9148 44.1081 83.3255 43.8654C83.7455 43.6227 84.2542 43.5014 84.8515 43.5014V44.8174H84.5155C83.0875 44.8174 82.3735 45.5921 82.3735 47.1414V51.3134H81.0995V43.6414H82.3735V44.8874Z" fill="#A1A1AA"/>
</svg>
