<svg width="143" height="57" viewBox="0 0 143 57" fill="none" xmlns="http://www.w3.org/2000/svg">
<path d="M8.802 18.7704H3.33L2.322 21.5604H0.594L5.13 9.08639H7.02L11.538 21.5604H9.81L8.802 18.7704ZM8.334 17.4384L6.066 11.1024L3.798 17.4384H8.334ZM15.1529 13.5324C15.4889 12.9444 15.9809 12.4644 16.6289 12.0924C17.2769 11.7204 18.0149 11.5344 18.8429 11.5344C19.7309 11.5344 20.5289 11.7444 21.2369 12.1644C21.9449 12.5844 22.5029 13.1784 22.9109 13.9464C23.3189 14.7024 23.5229 15.5844 23.5229 16.5924C23.5229 17.5884 23.3189 18.4764 22.9109 19.2564C22.5029 20.0364 21.9389 20.6424 21.2189 21.0744C20.5109 21.5064 19.7189 21.7224 18.8429 21.7224C17.9909 21.7224 17.2409 21.5364 16.5929 21.1644C15.9569 20.7924 15.4769 20.3184 15.1529 19.7424V21.5604H13.5149V8.24039H15.1529V13.5324ZM21.8489 16.5924C21.8489 15.8484 21.6989 15.2004 21.3989 14.6484C21.0989 14.0964 20.6909 13.6764 20.1749 13.3884C19.6709 13.1004 19.1129 12.9564 18.5009 12.9564C17.9009 12.9564 17.3429 13.1064 16.8269 13.4064C16.3229 13.6944 15.9149 14.1204 15.6029 14.6844C15.3029 15.2364 15.1529 15.8784 15.1529 16.6104C15.1529 17.3544 15.3029 18.0084 15.6029 18.5724C15.9149 19.1244 16.3229 19.5504 16.8269 19.8504C17.3429 20.1384 17.9009 20.2824 18.5009 20.2824C19.1129 20.2824 19.6709 20.1384 20.1749 19.8504C20.6909 19.5504 21.0989 19.1244 21.3989 18.5724C21.6989 18.0084 21.8489 17.3484 21.8489 16.5924ZM25.067 16.6104C25.067 15.5904 25.271 14.7024 25.679 13.9464C26.087 13.1784 26.651 12.5844 27.371 12.1644C28.103 11.7444 28.937 11.5344 29.873 11.5344C31.085 11.5344 32.081 11.8284 32.861 12.4164C33.653 13.0044 34.175 13.8204 34.427 14.8644H32.663C32.495 14.2644 32.165 13.7904 31.673 13.4424C31.193 13.0944 30.593 12.9204 29.873 12.9204C28.937 12.9204 28.181 13.2444 27.605 13.8924C27.029 14.5284 26.741 15.4344 26.741 16.6104C26.741 17.7984 27.029 18.7164 27.605 19.3644C28.181 20.0124 28.937 20.3364 29.873 20.3364C30.593 20.3364 31.193 20.1684 31.673 19.8324C32.153 19.4964 32.483 19.0164 32.663 18.3924H34.427C34.163 19.4004 33.635 20.2104 32.843 20.8224C32.051 21.4224 31.061 21.7224 29.873 21.7224C28.937 21.7224 28.103 21.5124 27.371 21.0924C26.651 20.6724 26.087 20.0784 25.679 19.3104C25.271 18.5424 25.067 17.6424 25.067 16.6104ZM43.0494 10.3464V14.5404H47.6214V15.8904H43.0494V20.2104H48.1614V21.5604H41.4114V8.99639H48.1614V10.3464H43.0494ZM54.6539 13.0464H52.5839V21.5604H50.9459V13.0464H49.6679V11.6964H50.9459V10.9944C50.9459 9.89039 51.2279 9.08639 51.7919 8.58239C52.3679 8.06639 53.2859 7.80839 54.5459 7.80839V9.17639C53.8259 9.17639 53.3159 9.32039 53.0159 9.60839C52.7279 9.88439 52.5839 10.3464 52.5839 10.9944V11.6964H54.6539V13.0464ZM60.6317 11.5344C61.4837 11.5344 62.2277 11.7204 62.8637 12.0924C63.5117 12.4644 63.9917 12.9324 64.3037 13.4964V11.6964H65.9597V21.7764C65.9597 22.6764 65.7677 23.4744 65.3837 24.1704C64.9997 24.8784 64.4477 25.4304 63.7277 25.8264C63.0197 26.2224 62.1917 26.4204 61.2437 26.4204C59.9477 26.4204 58.8677 26.1144 58.0037 25.5024C57.1397 24.8904 56.6297 24.0564 56.4737 23.0004H58.0937C58.2737 23.6004 58.6457 24.0804 59.2097 24.4404C59.7737 24.8124 60.4517 24.9984 61.2437 24.9984C62.1437 24.9984 62.8757 24.7164 63.4397 24.1524C64.0157 23.5884 64.3037 22.7964 64.3037 21.7764V19.7064C63.9797 20.2824 63.4997 20.7624 62.8637 21.1464C62.2277 21.5304 61.4837 21.7224 60.6317 21.7224C59.7557 21.7224 58.9577 21.5064 58.2377 21.0744C57.5297 20.6424 56.9717 20.0364 56.5637 19.2564C56.1557 18.4764 55.9517 17.5884 55.9517 16.5924C55.9517 15.5844 56.1557 14.7024 56.5637 13.9464C56.9717 13.1784 57.5297 12.5844 58.2377 12.1644C58.9577 11.7444 59.7557 11.5344 60.6317 11.5344ZM64.3037 16.6104C64.3037 15.8664 64.1537 15.2184 63.8537 14.6664C63.5537 14.1144 63.1457 13.6944 62.6297 13.4064C62.1257 13.1064 61.5677 12.9564 60.9557 12.9564C60.3437 12.9564 59.7857 13.1004 59.2817 13.3884C58.7777 13.6764 58.3757 14.0964 58.0757 14.6484C57.7757 15.2004 57.6257 15.8484 57.6257 16.5924C57.6257 17.3484 57.7757 18.0084 58.0757 18.5724C58.3757 19.1244 58.7777 19.5504 59.2817 19.8504C59.7857 20.1384 60.3437 20.2824 60.9557 20.2824C61.5677 20.2824 62.1257 20.1384 62.6297 19.8504C63.1457 19.5504 63.5537 19.1244 63.8537 18.5724C64.1537 18.0084 64.3037 17.3544 64.3037 16.6104Z" fill="white"/>
<path d="M4.172 50.6584C3.528 50.6584 2.94933 50.5464 2.436 50.3224C1.932 50.0891 1.53533 49.7717 1.246 49.3704C0.956667 48.9597 0.807333 48.4884 0.798 47.9564H2.156C2.20267 48.4137 2.38933 48.8011 2.716 49.1184C3.052 49.4264 3.53733 49.5804 4.172 49.5804C4.77867 49.5804 5.25467 49.4311 5.6 49.1324C5.95467 48.8244 6.132 48.4324 6.132 47.9564C6.132 47.5831 6.02933 47.2797 5.824 47.0464C5.61867 46.8131 5.362 46.6357 5.054 46.5144C4.746 46.3931 4.33067 46.2624 3.808 46.1224C3.164 45.9544 2.646 45.7864 2.254 45.6184C1.87133 45.4504 1.54 45.1891 1.26 44.8344C0.989333 44.4704 0.854 43.9851 0.854 43.3784C0.854 42.8464 0.989333 42.3751 1.26 41.9644C1.53067 41.5537 1.90867 41.2364 2.394 41.0124C2.88867 40.7884 3.45333 40.6764 4.088 40.6764C5.00267 40.6764 5.74933 40.9051 6.328 41.3624C6.916 41.8197 7.24733 42.4264 7.322 43.1824H5.922C5.87533 42.8091 5.67933 42.4824 5.334 42.2024C4.98867 41.9131 4.53133 41.7684 3.962 41.7684C3.43 41.7684 2.996 41.9084 2.66 42.1884C2.324 42.4591 2.156 42.8417 2.156 43.3364C2.156 43.6911 2.254 43.9804 2.45 44.2044C2.65533 44.4284 2.90267 44.6011 3.192 44.7224C3.49067 44.8344 3.906 44.9651 4.438 45.1144C5.082 45.2917 5.6 45.4691 5.992 45.6464C6.384 45.8144 6.72 46.0804 7 46.4444C7.28 46.7991 7.42 47.2844 7.42 47.9004C7.42 48.3764 7.294 48.8244 7.042 49.2444C6.79 49.6644 6.41667 50.0051 5.922 50.2664C5.42733 50.5277 4.844 50.6584 4.172 50.6584ZM12.6408 50.6864C11.9221 50.6864 11.2688 50.5231 10.6808 50.1964C10.1021 49.8697 9.6448 49.4077 9.3088 48.8104C8.98213 48.2037 8.8188 47.5037 8.8188 46.7104C8.8188 45.9264 8.9868 45.2357 9.3228 44.6384C9.66813 44.0317 10.1348 43.5697 10.7228 43.2524C11.3108 42.9257 11.9688 42.7624 12.6968 42.7624C13.4248 42.7624 14.0828 42.9257 14.6708 43.2524C15.2588 43.5697 15.7208 44.0271 16.0568 44.6244C16.4021 45.2217 16.5748 45.9171 16.5748 46.7104C16.5748 47.5037 16.3975 48.2037 16.0428 48.8104C15.6975 49.4077 15.2261 49.8697 14.6288 50.1964C14.0315 50.5231 13.3688 50.6864 12.6408 50.6864ZM12.6408 49.5664C13.0981 49.5664 13.5275 49.4591 13.9288 49.2444C14.3301 49.0297 14.6521 48.7077 14.8948 48.2784C15.1468 47.8491 15.2728 47.3264 15.2728 46.7104C15.2728 46.0944 15.1515 45.5717 14.9088 45.1424C14.6661 44.7131 14.3488 44.3957 13.9568 44.1904C13.5648 43.9757 13.1401 43.8684 12.6828 43.8684C12.2161 43.8684 11.7868 43.9757 11.3948 44.1904C11.0121 44.3957 10.7041 44.7131 10.4708 45.1424C10.2375 45.5717 10.1208 46.0944 10.1208 46.7104C10.1208 47.3357 10.2328 47.8631 10.4568 48.2924C10.6901 48.7217 10.9981 49.0437 11.3808 49.2584C11.7635 49.4637 12.1835 49.5664 12.6408 49.5664ZM21.3719 43.9384H19.7619V50.5604H18.4879V43.9384H17.4939V42.8884H18.4879V42.3424C18.4879 41.4837 18.7072 40.8584 19.1459 40.4664C19.5939 40.0651 20.3079 39.8644 21.2879 39.8644V40.9284C20.7279 40.9284 20.3312 41.0404 20.0979 41.2644C19.8739 41.4791 19.7619 41.8384 19.7619 42.3424V42.8884H21.3719V43.9384ZM24.4113 43.9384V48.4604C24.4113 48.8337 24.4906 49.0997 24.6493 49.2584C24.808 49.4077 25.0833 49.4824 25.4753 49.4824H26.4133V50.5604H25.2653C24.556 50.5604 24.024 50.3971 23.6693 50.0704C23.3146 49.7437 23.1373 49.2071 23.1373 48.4604V43.9384H22.1433V42.8884H23.1373V40.9564H24.4113V42.8884H26.4133V43.9384H24.4113ZM38.1769 42.8884L35.7829 50.5604H34.4669L32.6189 44.4704L30.7709 50.5604H29.4549L27.0469 42.8884H28.3489L30.1129 49.3284L32.0169 42.8884H33.3189L35.1809 49.3424L36.9169 42.8884H38.1769ZM38.9653 46.6964C38.9653 45.9124 39.1239 45.2264 39.4413 44.6384C39.7586 44.0411 40.1926 43.5791 40.7433 43.2524C41.3033 42.9257 41.9239 42.7624 42.6053 42.7624C43.2773 42.7624 43.8606 42.9071 44.3553 43.1964C44.8499 43.4857 45.2186 43.8497 45.4613 44.2884V42.8884H46.7493V50.5604H45.4613V49.1324C45.2093 49.5804 44.8313 49.9537 44.3273 50.2524C43.8326 50.5417 43.2539 50.6864 42.5913 50.6864C41.9099 50.6864 41.2939 50.5184 40.7433 50.1824C40.1926 49.8464 39.7586 49.3751 39.4413 48.7684C39.1239 48.1617 38.9653 47.4711 38.9653 46.6964ZM45.4613 46.7104C45.4613 46.1317 45.3446 45.6277 45.1113 45.1984C44.8779 44.7691 44.5606 44.4424 44.1593 44.2184C43.7673 43.9851 43.3333 43.8684 42.8573 43.8684C42.3813 43.8684 41.9473 43.9804 41.5553 44.2044C41.1633 44.4284 40.8506 44.7551 40.6173 45.1844C40.3839 45.6137 40.2673 46.1177 40.2673 46.6964C40.2673 47.2844 40.3839 47.7977 40.6173 48.2364C40.8506 48.6657 41.1633 48.9971 41.5553 49.2304C41.9473 49.4544 42.3813 49.5664 42.8573 49.5664C43.3333 49.5664 43.7673 49.4544 44.1593 49.2304C44.5606 48.9971 44.8779 48.6657 45.1113 48.2364C45.3446 47.7977 45.4613 47.2891 45.4613 46.7104ZM50.1762 44.1344C50.4002 43.6957 50.7176 43.3551 51.1282 43.1124C51.5482 42.8697 52.0569 42.7484 52.6542 42.7484V44.0644H52.3182C50.8902 44.0644 50.1762 44.8391 50.1762 46.3884V50.5604H48.9022V42.8884H50.1762V44.1344ZM61.1249 46.4304C61.1249 46.6731 61.1109 46.9297 61.0829 47.2004H54.9509C54.9975 47.9564 55.2542 48.5491 55.7209 48.9784C56.1969 49.3984 56.7709 49.6084 57.4429 49.6084C57.9935 49.6084 58.4509 49.4824 58.8149 49.2304C59.1882 48.9691 59.4495 48.6237 59.5989 48.1944H60.9709C60.7655 48.9317 60.3549 49.5337 59.7389 50.0004C59.1229 50.4577 58.3575 50.6864 57.4429 50.6864C56.7149 50.6864 56.0615 50.5231 55.4829 50.1964C54.9135 49.8697 54.4655 49.4077 54.1389 48.8104C53.8122 48.2037 53.6489 47.5037 53.6489 46.7104C53.6489 45.9171 53.8075 45.2217 54.1249 44.6244C54.4422 44.0271 54.8855 43.5697 55.4549 43.2524C56.0335 42.9257 56.6962 42.7624 57.4429 42.7624C58.1709 42.7624 58.8149 42.9211 59.3749 43.2384C59.9349 43.5557 60.3642 43.9944 60.6629 44.5544C60.9709 45.1051 61.1249 45.7304 61.1249 46.4304ZM59.8089 46.1644C59.8089 45.6791 59.7015 45.2637 59.4869 44.9184C59.2722 44.5637 58.9782 44.2977 58.6049 44.1204C58.2409 43.9337 57.8349 43.8404 57.3869 43.8404C56.7429 43.8404 56.1922 44.0457 55.7349 44.4564C55.2869 44.8671 55.0302 45.4364 54.9649 46.1644H59.8089ZM67.8129 41.8384V45.1004H71.3689V46.1504H67.8129V49.5104H71.7889V50.5604H66.5389V40.7884H71.7889V41.8384H67.8129ZM77.4547 42.7484C78.388 42.7484 79.144 43.0331 79.7227 43.6024C80.3013 44.1624 80.5907 44.9744 80.5907 46.0384V50.5604H79.3307V46.2204C79.3307 45.4551 79.1393 44.8717 78.7567 44.4704C78.374 44.0597 77.8513 43.8544 77.1887 43.8544C76.5167 43.8544 75.98 44.0644 75.5787 44.4844C75.1867 44.9044 74.9907 45.5157 74.9907 46.3184V50.5604H73.7167V42.8884H74.9907V43.9804C75.2427 43.5884 75.5833 43.2851 76.0127 43.0704C76.4513 42.8557 76.932 42.7484 77.4547 42.7484ZM85.8358 42.7624C86.4984 42.7624 87.0771 42.9071 87.5718 43.1964C88.0758 43.4857 88.4491 43.8497 88.6918 44.2884V42.8884H89.9798V50.7284C89.9798 51.4284 89.8304 52.0491 89.5318 52.5904C89.2331 53.1411 88.8038 53.5704 88.2438 53.8784C87.6931 54.1864 87.0491 54.3404 86.3118 54.3404C85.3038 54.3404 84.4638 54.1024 83.7918 53.6264C83.1198 53.1504 82.7231 52.5017 82.6018 51.6804H83.8618C84.0018 52.1471 84.2911 52.5204 84.7298 52.8004C85.1684 53.0897 85.6958 53.2344 86.3118 53.2344C87.0118 53.2344 87.5811 53.0151 88.0198 52.5764C88.4678 52.1377 88.6918 51.5217 88.6918 50.7284V49.1184C88.4398 49.5664 88.0664 49.9397 87.5718 50.2384C87.0771 50.5371 86.4984 50.6864 85.8358 50.6864C85.1544 50.6864 84.5338 50.5184 83.9738 50.1824C83.4231 49.8464 82.9891 49.3751 82.6718 48.7684C82.3544 48.1617 82.1958 47.4711 82.1958 46.6964C82.1958 45.9124 82.3544 45.2264 82.6718 44.6384C82.9891 44.0411 83.4231 43.5791 83.9738 43.2524C84.5338 42.9257 85.1544 42.7624 85.8358 42.7624ZM88.6918 46.7104C88.6918 46.1317 88.5751 45.6277 88.3418 45.1984C88.1084 44.7691 87.7911 44.4424 87.3898 44.2184C86.9978 43.9851 86.5638 43.8684 86.0878 43.8684C85.6118 43.8684 85.1778 43.9804 84.7858 44.2044C84.3938 44.4284 84.0811 44.7551 83.8478 45.1844C83.6144 45.6137 83.4978 46.1177 83.4978 46.6964C83.4978 47.2844 83.6144 47.7977 83.8478 48.2364C84.0811 48.6657 84.3938 48.9971 84.7858 49.2304C85.1778 49.4544 85.6118 49.5664 86.0878 49.5664C86.5638 49.5664 86.9978 49.4544 87.3898 49.2304C87.7911 48.9971 88.1084 48.6657 88.3418 48.2364C88.5751 47.7977 88.6918 47.2891 88.6918 46.7104ZM92.7907 41.6424C92.548 41.6424 92.3427 41.5584 92.1747 41.3904C92.0067 41.2224 91.9227 41.0171 91.9227 40.7744C91.9227 40.5317 92.0067 40.3264 92.1747 40.1584C92.3427 39.9904 92.548 39.9064 92.7907 39.9064C93.024 39.9064 93.22 39.9904 93.3787 40.1584C93.5467 40.3264 93.6307 40.5317 93.6307 40.7744C93.6307 41.0171 93.5467 41.2224 93.3787 41.3904C93.22 41.5584 93.024 41.6424 92.7907 41.6424ZM93.4067 42.8884V50.5604H92.1327V42.8884H93.4067ZM99.316 42.7484C100.249 42.7484 101.005 43.0331 101.584 43.6024C102.163 44.1624 102.452 44.9744 102.452 46.0384V50.5604H101.192V46.2204C101.192 45.4551 101.001 44.8717 100.618 44.4704C100.235 44.0597 99.7127 43.8544 99.05 43.8544C98.378 43.8544 97.8413 44.0644 97.44 44.4844C97.048 44.9044 96.852 45.5157 96.852 46.3184V50.5604H95.578V42.8884H96.852V43.9804C97.104 43.5884 97.4447 43.2851 97.874 43.0704C98.3127 42.8557 98.7933 42.7484 99.316 42.7484ZM111.533 46.4304C111.533 46.6731 111.519 46.9297 111.491 47.2004H105.359C105.406 47.9564 105.662 48.5491 106.129 48.9784C106.605 49.3984 107.179 49.6084 107.851 49.6084C108.402 49.6084 108.859 49.4824 109.223 49.2304C109.596 48.9691 109.858 48.6237 110.007 48.1944H111.379C111.174 48.9317 110.763 49.5337 110.147 50.0004C109.531 50.4577 108.766 50.6864 107.851 50.6864C107.123 50.6864 106.47 50.5231 105.891 50.1964C105.322 49.8697 104.874 49.4077 104.547 48.8104C104.22 48.2037 104.057 47.5037 104.057 46.7104C104.057 45.9171 104.216 45.2217 104.533 44.6244C104.85 44.0271 105.294 43.5697 105.863 43.2524C106.442 42.9257 107.104 42.7624 107.851 42.7624C108.579 42.7624 109.223 42.9211 109.783 43.2384C110.343 43.5557 110.772 43.9944 111.071 44.5544C111.379 45.1051 111.533 45.7304 111.533 46.4304ZM110.217 46.1644C110.217 45.6791 110.11 45.2637 109.895 44.9184C109.68 44.5637 109.386 44.2977 109.013 44.1204C108.649 43.9337 108.243 43.8404 107.795 43.8404C107.151 43.8404 106.6 44.0457 106.143 44.4564C105.695 44.8671 105.438 45.4364 105.373 46.1644H110.217ZM120.215 46.4304C120.215 46.6731 120.201 46.9297 120.173 47.2004H114.041C114.087 47.9564 114.344 48.5491 114.811 48.9784C115.287 49.3984 115.861 49.6084 116.533 49.6084C117.083 49.6084 117.541 49.4824 117.905 49.2304C118.278 48.9691 118.539 48.6237 118.689 48.1944H120.061C119.855 48.9317 119.445 49.5337 118.829 50.0004C118.213 50.4577 117.447 50.6864 116.533 50.6864C115.805 50.6864 115.151 50.5231 114.573 50.1964C114.003 49.8697 113.555 49.4077 113.229 48.8104C112.902 48.2037 112.739 47.5037 112.739 46.7104C112.739 45.9171 112.897 45.2217 113.215 44.6244C113.532 44.0271 113.975 43.5697 114.545 43.2524C115.123 42.9257 115.786 42.7624 116.533 42.7624C117.261 42.7624 117.905 42.9211 118.465 43.2384C119.025 43.5557 119.454 43.9944 119.753 44.5544C120.061 45.1051 120.215 45.7304 120.215 46.4304ZM118.899 46.1644C118.899 45.6791 118.791 45.2637 118.577 44.9184C118.362 44.5637 118.068 44.2977 117.695 44.1204C117.331 43.9337 116.925 43.8404 116.477 43.8404C115.833 43.8404 115.282 44.0457 114.825 44.4564C114.377 44.8671 114.12 45.4364 114.055 46.1644H118.899ZM123.17 44.1344C123.394 43.6957 123.712 43.3551 124.122 43.1124C124.542 42.8697 125.051 42.7484 125.648 42.7484V44.0644H125.312C123.884 44.0644 123.17 44.8391 123.17 46.3884V50.5604H121.896V42.8884H123.17V44.1344Z" fill="#A1A1AA"/>
</svg>
